<svg width="65" height="64" viewBox="0 0 65 64" fill="none" xmlns="http://www.w3.org/2000/svg">
<g id="Facebook">
<path id="back" d="M32.5 64C50.1731 64 64.5 49.6731 64.5 32C64.5 14.3269 50.1731 0 32.5 0C14.8269 0 0.5 14.3269 0.5 32C0.5 49.6731 14.8269 64 32.5 64Z" fill="white"/>
<path id="Facebook_2" d="M48.0708 14.5022H16.9291C16.4179 14.5022 15.9276 14.7053 15.5661 15.0668C15.2047 15.4283 15.0016 15.9185 15.0016 16.4298V47.5714C15.0016 48.0826 15.2047 48.5729 15.5661 48.9344C15.9276 49.2959 16.4179 49.4989 16.9291 49.4989H33.6971V35.946H29.1117V30.6754H33.6745V26.7752C33.6745 22.2575 36.4303 19.7954 40.451 19.7954C41.8117 19.7892 43.1716 19.8595 44.5244 20.0062V24.7272H41.731C39.5324 24.7272 39.1108 25.7738 39.1108 27.3022V30.6754H44.3437L43.6585 35.946H39.1409V49.4989H48.0632C48.5745 49.4989 49.0647 49.2959 49.4262 48.9344C49.7877 48.5729 49.9908 48.0826 49.9908 47.5714V16.4298C49.9908 15.9198 49.7887 15.4307 49.4289 15.0694C49.069 14.7082 48.5807 14.5042 48.0708 14.5022Z" fill="#689D71"/>
</g>
</svg>
