<svg width="65" height="64" viewBox="0 0 65 64" fill="none" xmlns="http://www.w3.org/2000/svg">
<g id="Instagram">
<path id="back" d="M32.5 64C50.1731 64 64.5 49.6731 64.5 32C64.5 14.3269 50.1731 0 32.5 0C14.8269 0 0.5 14.3269 0.5 32C0.5 49.6731 14.8269 64 32.5 64Z" fill="white"/>
<path id="Vector" d="M32.4997 17.3174C37.2809 17.3174 37.8531 17.3174 39.743 17.4228C40.8799 17.4327 42.0063 17.6416 43.071 18.0402C43.8418 18.3395 44.5417 18.796 45.1263 19.3806C45.711 19.9653 46.1675 20.6652 46.4668 21.4359C46.8653 22.5007 47.0743 23.6271 47.0842 24.764C47.1746 26.6538 47.1896 27.2261 47.1896 32.0072C47.1896 36.7884 47.1896 37.3606 47.0842 39.2505C47.0743 40.3874 46.8653 41.5137 46.4668 42.5785C46.1675 43.3492 45.711 44.0492 45.1263 44.6339C44.5417 45.2185 43.8418 45.675 43.071 45.9743C42.0063 46.3728 40.8799 46.5818 39.743 46.5917C37.8531 46.6821 37.2884 46.6971 32.4997 46.6971C27.711 46.6971 27.1463 46.6971 25.2564 46.5917C24.1196 46.5818 22.9932 46.3728 21.9284 45.9743C21.164 45.6698 20.4709 45.2102 19.8929 44.6244C19.3149 44.0387 18.8646 43.3395 18.5703 42.571C18.1718 41.5062 17.9628 40.3799 17.9529 39.243C17.8626 37.3531 17.8475 36.7809 17.8475 31.9997C17.8475 27.2185 17.8475 26.6463 17.9529 24.7564C17.9628 23.6195 18.1718 22.4932 18.5703 21.4284C18.8698 20.6683 19.3225 19.9779 19.9002 19.4002C20.4779 18.8225 21.1683 18.3698 21.9284 18.0703C22.9932 17.6717 24.1196 17.4628 25.2564 17.4529C27.1463 17.3625 27.7186 17.3475 32.4997 17.3475M32.4997 14.1174C27.6357 14.1174 27.0259 14.1174 25.1134 14.2228C23.6259 14.2535 22.1544 14.5361 20.7614 15.0585C19.5609 15.5158 18.4708 16.2218 17.5624 17.1302C16.6541 18.0385 15.9481 19.1287 15.4908 20.3291C14.9684 21.7222 14.6858 23.1937 14.655 24.6811C14.5722 26.5936 14.5496 27.2035 14.5496 32.0675C14.5496 36.9315 14.5496 37.5413 14.655 39.4538C14.715 40.9223 15.0204 42.3704 15.5586 43.7381C16.0159 44.9385 16.7218 46.0287 17.6302 46.937C18.5385 47.8454 19.6287 48.5513 20.8292 49.0086C22.2222 49.5311 23.6937 49.8137 25.1811 49.8444C27.0936 49.9272 27.7035 49.9498 32.5675 49.9498C37.4315 49.9498 38.0414 49.9498 39.9539 49.8444C41.4413 49.8137 42.9128 49.5311 44.3059 49.0086C45.5063 48.5513 46.5965 47.8454 47.5048 46.937C48.4132 46.0287 49.1191 44.9385 49.5764 43.7381C50.0989 42.345 50.3815 40.8735 50.4122 39.3861C50.495 37.4736 50.5176 36.8637 50.5176 31.9997C50.5176 27.1357 50.5176 26.5258 50.4122 24.6134C50.3815 23.1259 50.0989 21.6544 49.5764 20.2614C49.1191 19.0609 48.4132 17.9707 47.5048 17.0624C46.5965 16.154 45.5063 15.4481 44.3059 14.9908C42.9128 14.4683 41.4413 14.1857 39.9539 14.155C38.0414 14.0722 37.4315 14.0496 32.5675 14.0496L32.4997 14.1174Z" fill="#689D71"/>
<path id="Vector_2" d="M32.4994 22.7993C30.6796 22.7993 28.9007 23.339 27.3876 24.35C25.8745 25.361 24.6952 26.798 23.9988 28.4792C23.3024 30.1605 23.1202 32.0105 23.4753 33.7953C23.8303 35.5801 24.7066 37.2196 25.9934 38.5063C27.2801 39.7931 28.9196 40.6694 30.7044 41.0244C32.4892 41.3795 34.3392 41.1972 36.0205 40.5008C37.7017 39.8044 39.1387 38.6251 40.1497 37.1121C41.1607 35.599 41.7003 33.8201 41.7003 32.0003C41.7003 29.56 40.731 27.2198 39.0055 25.4942C37.2799 23.7687 34.9396 22.7993 32.4994 22.7993ZM32.4994 37.9711C31.3185 37.9711 30.1641 37.6209 29.1822 36.9649C28.2003 36.3088 27.435 35.3762 26.9831 34.2852C26.5312 33.1942 26.4129 31.9937 26.6433 30.8354C26.8737 29.6772 27.4424 28.6133 28.2774 27.7783C29.1124 26.9432 30.1763 26.3746 31.3346 26.1442C32.4928 25.9138 33.6933 26.0321 34.7843 26.484C35.8754 26.9359 36.8079 27.7012 37.464 28.6831C38.12 29.665 38.4702 30.8194 38.4702 32.0003C38.4702 33.5838 37.8412 35.1026 36.7214 36.2223C35.6017 37.342 34.083 37.9711 32.4994 37.9711Z" fill="#689D71"/>
<path id="Vector_3" d="M42.0619 24.5908C43.2512 24.5908 44.2153 23.6267 44.2153 22.4374C44.2153 21.2481 43.2512 20.284 42.0619 20.284C40.8726 20.284 39.9085 21.2481 39.9085 22.4374C39.9085 23.6267 40.8726 24.5908 42.0619 24.5908Z" fill="#689D71"/>
</g>
</svg>
