<?xml version="1.0" encoding="UTF-8"?>
<svg id="Calque_1" data-name="Calque 1" xmlns="http://www.w3.org/2000/svg" xmlns:xlink="http://www.w3.org/1999/xlink" viewBox="0 0 595.28 841.89">
  <defs>
    <style>
      .cls-1 {
        fill: none;
      }

      .cls-1, .cls-2, .cls-3 {
        stroke-width: 0px;
      }

      .cls-2 {
        fill: url(#Home_fit_ohm_2);
      }

      .cls-3 {
        fill: #fff;
      }
    </style>
    <pattern id="Home_fit_ohm_2" data-name="Home fit ohm 2" x="0" y="0" width="285" height="285" patternTransform="translate(-4117.98 -3851.33) scale(.43)" patternUnits="userSpaceOnUse" viewBox="0 0 285 285">
      <g>
        <rect class="cls-1" width="285" height="285"/>
        <path class="cls-3" d="M301.14,7.77c.18,1.31.32,2.31.42,3,.03.15.05.25.06.36l.36,2.61.15,1.04c.09.59.2,1.37.43,2.93.14.97.33,2.36.57,4.05,5.12,34.94,9.31,51.85,10.47,56.2,1.19,4.45,2.89,9.79,6.52,15.62,2.42,3.89,5.37,7.48,8.75,10.65.85.8,1.34,1.87,1.38,3.04.04,1.16-.38,2.27-1.17,3.12-.82.88-1.98,1.38-3.18,1.38-1.11,0-2.17-.42-2.98-1.18-3.94-3.69-7.38-7.87-10.2-12.41-4.23-6.8-6.18-12.9-7.54-17.98-2.67-10-7.09-31.7-11.46-62.63l-.11-.78-.78.08c-.58.06-1.15.11-1.73.16-9.18.78-11.76,1.1-15.33,1.55l-1.07.13c-2.57.32-4.54,2.42-4.69,5l-.13,2.21c-.72,12.44-1.09,18.69-.91,37.88.13,13.99.55,28.15,1.23,42.09.08,1.7.98,3.27,2.39,4.2l48.64,32.16,48.64-32.16c1.41-.94,2.31-2.51,2.39-4.2.69-13.93,1.1-28.09,1.24-42.09.18-19.21-.19-25.45-.91-37.88l-.13-2.21c-.15-2.58-2.12-4.68-4.69-5-7.25-.9-14.67-1.61-22.06-2.09l-.48-.03-.26.4c-5.44,8.18-10.71,16.57-15.65,24.95-7.24,12.26-7.3,14.43-6.75,17.82.4,2.46,1.49,4.86,3.26,7.13l.6.77,1.97-2.16c.86-.94.91-2.34.12-3.33l-1.36-1.72c-.72-.91-1.05-2.05-.91-3.21.13-1.16.71-2.19,1.63-2.91.77-.61,1.72-.94,2.7-.94,1.34,0,2.59.6,3.42,1.65l1.36,1.72c3.45,4.36,3.23,10.51-.52,14.61l-3.82,4.18c-.95,1.21-2.26,1.96-3.73,2.16-.25.03-.5.05-.75.05-1.39,0-2.73-.52-3.77-1.45-4.86-4.38-7.9-9.63-8.79-15.17-1.31-8.13,2.34-14.3,7.85-23.64,3.12-5.28,6.4-10.63,9.77-15.92l.26-.4c.72-1.12,1.44-2.25,2.16-3.36l.13-.21c1.01-1.57,2.06-3.18,3.14-4.79l.95-1.43s.07-.09.1-.14c.35-.51.68-.99,1.01-1.47.45-.66.9-1.31,1.36-1.96l.15-.22.4.02c.61.03,1.23.06,1.84.1,8.59.49,17.26,1.28,25.76,2.34,6.74.84,11.92,6.37,12.31,13.14l.13,2.21c.74,12.64,1.11,18.98.93,38.47-.13,14.1-.55,28.37-1.24,42.44-.22,4.45-2.57,8.58-6.29,11.04l-53.44,35.34-53.44-35.34c-3.72-2.46-6.07-6.59-6.29-11.04-.69-14.05-1.11-28.32-1.24-42.44-.18-19.48.19-25.82.92-38.45l.13-2.23c.39-6.77,5.57-12.3,12.31-13.14l1.07-.13c3.12-.39,5.58-.7,12.22-1.29.44-.03,1.01-.08,1.68-.14,2.44-.27,4.92-.52,7.38-.75.69-.07,1.51-.14,2.44-.22l2.68-.23.06.45Z"/>
        <g>
          <g>
            <path class="cls-3" d="M93.69,202.33c-.45,0-.9-.04-1.34-.12-2.02-.36-3.78-1.48-4.96-3.16-1.18-1.68-1.63-3.72-1.27-5.74.65-3.68,3.83-6.35,7.56-6.35.45,0,.9.04,1.34.12,2.02.36,3.78,1.48,4.96,3.16,1.18,1.68,1.63,3.72,1.27,5.74-.65,3.68-3.83,6.35-7.55,6.35Z"/>
            <path class="cls-3" d="M127.16,277.23c-.18-1.31-.32-2.31-.42-3-.03-.15-.05-.25-.06-.36l-.36-2.61-.15-1.04c-.09-.59-.2-1.37-.43-2.93-.14-.97-.33-2.36-.57-4.05-5.12-34.94-9.31-51.85-10.47-56.2-1.19-4.45-2.89-9.79-6.52-15.62-2.42-3.89-5.37-7.48-8.75-10.65-.85-.8-1.34-1.87-1.38-3.04-.04-1.16.38-2.27,1.17-3.12.82-.88,1.98-1.38,3.18-1.38,1.11,0,2.17.42,2.98,1.18,3.94,3.69,7.38,7.87,10.2,12.41,4.23,6.8,6.18,12.9,7.54,17.98,2.67,10,7.09,31.7,11.46,62.63l.11.78.78-.08c.58-.06,1.15-.11,1.73-.16,9.18-.78,11.76-1.1,15.33-1.55l1.07-.13c2.57-.32,4.54-2.42,4.69-5l.13-2.21c.72-12.44,1.09-18.69.91-37.88-.13-13.99-.55-28.15-1.23-42.09-.08-1.7-.98-3.27-2.39-4.2l-48.64-32.16-48.64,32.16c-1.41.94-2.31,2.51-2.39,4.2-.69,13.93-1.1,28.09-1.24,42.09-.18,19.21.19,25.45.91,37.88l.13,2.21c.15,2.58,2.12,4.68,4.69,5,7.25.9,14.67,1.61,22.06,2.09l.48.03.26-.4c5.44-8.18,10.71-16.57,15.65-24.95,7.24-12.26,7.3-14.43,6.75-17.82-.4-2.46-1.49-4.86-3.26-7.13l-.6-.77-1.97,2.16c-.86.94-.91,2.34-.12,3.33l1.36,1.72c.72.91,1.05,2.05.91,3.21-.13,1.16-.71,2.19-1.63,2.91-.77.61-1.72.94-2.7.94-1.34,0-2.59-.6-3.42-1.65l-1.36-1.72c-3.45-4.36-3.23-10.51.52-14.61l3.82-4.18c.95-1.21,2.26-1.96,3.73-2.16.25-.03.5-.05.75-.05,1.39,0,2.73.52,3.77,1.45,4.86,4.38,7.9,9.63,8.79,15.17,1.31,8.13-2.34,14.3-7.85,23.64-3.12,5.28-6.4,10.63-9.77,15.92l-.26.4c-.72,1.12-1.44,2.25-2.16,3.36l-.13.21c-1.01,1.57-2.06,3.18-3.14,4.79l-.95,1.43s-.07.09-.1.14c-.35.51-.68.99-1.01,1.47-.45.66-.9,1.31-1.36,1.96l-.15.22-.4-.02c-.61-.03-1.23-.06-1.84-.1-8.59-.49-17.26-1.28-25.76-2.34-6.74-.84-11.92-6.37-12.31-13.14l-.13-2.21c-.74-12.64-1.11-18.98-.93-38.47.13-14.1.55-28.37,1.24-42.44.22-4.45,2.57-8.58,6.29-11.04l53.44-35.34,53.44,35.34c3.72,2.46,6.07,6.59,6.29,11.04.69,14.05,1.11,28.32,1.24,42.44.18,19.48-.19,25.82-.92,38.45l-.13,2.23c-.39,6.77-5.57,12.3-12.31,13.14l-1.07.13c-3.12.39-5.58.7-12.22,1.29-.44.03-1.01.08-1.68.14-2.44.27-4.92.52-7.38.75-.69.07-1.51.14-2.44.22l-2.68.23-.06-.45Z"/>
          </g>
          <g>
            <path class="cls-3" d="M235.38,202.33c-.45,0-.9-.04-1.34-.12-2.02-.36-3.78-1.48-4.96-3.16-1.18-1.68-1.63-3.72-1.27-5.74.65-3.68,3.83-6.35,7.56-6.35.45,0,.9.04,1.34.12,2.02.36,3.78,1.48,4.96,3.16,1.18,1.68,1.63,3.72,1.27,5.74-.65,3.68-3.83,6.35-7.55,6.35Z"/>
            <path class="cls-3" d="M268.86,277.23c-.18-1.31-.32-2.31-.42-3-.03-.15-.05-.25-.06-.36l-.36-2.61-.15-1.04c-.09-.59-.2-1.37-.43-2.93-.14-.97-.33-2.36-.57-4.05-5.12-34.94-9.31-51.85-10.47-56.2-1.19-4.45-2.89-9.79-6.52-15.62-2.42-3.89-5.37-7.48-8.75-10.65-.85-.8-1.34-1.87-1.38-3.04-.04-1.16.38-2.27,1.17-3.12.82-.88,1.98-1.38,3.18-1.38,1.11,0,2.17.42,2.98,1.18,3.94,3.69,7.38,7.87,10.2,12.41,4.23,6.8,6.18,12.9,7.54,17.98,2.67,10,7.09,31.7,11.46,62.63l.11.78.78-.08c.58-.06,1.15-.11,1.73-.16,9.18-.78,11.76-1.1,15.33-1.55l1.07-.13c2.57-.32,4.54-2.42,4.69-5l.13-2.21c.72-12.44,1.09-18.69.91-37.88-.13-13.99-.55-28.15-1.23-42.09-.08-1.7-.98-3.27-2.39-4.2l-48.64-32.16-48.64,32.16c-1.41.94-2.31,2.51-2.39,4.2-.69,13.93-1.1,28.09-1.24,42.09-.18,19.21.19,25.45.91,37.88l.13,2.21c.15,2.58,2.12,4.68,4.69,5,7.25.9,14.67,1.61,22.06,2.09l.48.03.26-.4c5.44-8.18,10.71-16.57,15.65-24.95,7.24-12.26,7.3-14.43,6.75-17.82-.4-2.46-1.49-4.86-3.26-7.13l-.6-.77-1.97,2.16c-.86.94-.91,2.34-.12,3.33l1.36,1.72c.72.91,1.05,2.05.91,3.21-.13,1.16-.71,2.19-1.63,2.91-.77.61-1.72.94-2.7.94-1.34,0-2.59-.6-3.42-1.65l-1.36-1.72c-3.45-4.36-3.23-10.51.52-14.61l3.82-4.18c.95-1.21,2.26-1.96,3.73-2.16.25-.03.5-.05.75-.05,1.39,0,2.73.52,3.77,1.45,4.86,4.38,7.9,9.63,8.79,15.17,1.31,8.13-2.34,14.3-7.85,23.64-3.12,5.28-6.4,10.63-9.77,15.92l-.26.4c-.72,1.12-1.44,2.25-2.16,3.36l-.13.21c-1.01,1.57-2.06,3.18-3.14,4.79l-.95,1.43s-.07.09-.1.14c-.35.51-.68.99-1.01,1.47-.45.66-.9,1.31-1.36,1.96l-.15.22-.4-.02c-.61-.03-1.23-.06-1.84-.1-8.59-.49-17.26-1.28-25.76-2.34-6.74-.84-11.92-6.37-12.31-13.14l-.13-2.21c-.74-12.64-1.11-18.98-.93-38.47.13-14.1.55-28.37,1.24-42.44.22-4.45,2.57-8.58,6.29-11.04l53.44-35.34,53.44,35.34c3.72,2.46,6.07,6.59,6.29,11.04.69,14.05,1.11,28.32,1.24,42.44.18,19.48-.19,25.82-.92,38.45l-.13,2.23c-.39,6.77-5.57,12.3-12.31,13.14l-1.07.13c-3.12.39-5.58.7-12.22,1.29-.44.03-1.01.08-1.68.14-2.44.27-4.92.52-7.38.75-.69.07-1.51.14-2.44.22l-2.68.23-.06-.45Z"/>
          </g>
          <g>
            <path class="cls-3" d="M191.31,82.67c.45,0,.9.04,1.34.12,2.02.36,3.78,1.48,4.96,3.16,1.18,1.68,1.63,3.72,1.27,5.74-.65,3.68-3.83,6.35-7.56,6.35-.45,0-.9-.04-1.34-.12-2.02-.36-3.78-1.48-4.96-3.16-1.18-1.68-1.63-3.72-1.27-5.74.65-3.68,3.83-6.35,7.55-6.35Z"/>
            <path class="cls-3" d="M157.84,7.77c.18,1.31.32,2.31.42,3,.03.15.05.25.06.36l.36,2.61.15,1.04c.09.59.2,1.37.43,2.93.14.97.33,2.36.57,4.05,5.12,34.94,9.31,51.85,10.47,56.2,1.19,4.45,2.89,9.79,6.52,15.62,2.42,3.89,5.37,7.48,8.75,10.65.85.8,1.34,1.87,1.38,3.04.04,1.16-.38,2.27-1.17,3.12-.82.88-1.98,1.38-3.18,1.38-1.11,0-2.17-.42-2.98-1.18-3.94-3.69-7.38-7.87-10.2-12.41-4.23-6.8-6.18-12.9-7.54-17.98-2.67-10-7.09-31.7-11.46-62.63l-.11-.78-.78.08c-.58.06-1.15.11-1.73.16-9.18.78-11.76,1.1-15.33,1.55l-1.07.13c-2.57.32-4.54,2.42-4.69,5l-.13,2.21c-.72,12.44-1.09,18.69-.91,37.88.13,13.99.55,28.15,1.23,42.09.08,1.7.98,3.27,2.39,4.2l48.64,32.16,48.64-32.16c1.41-.94,2.31-2.51,2.39-4.2.69-13.93,1.1-28.09,1.24-42.09.18-19.21-.19-25.45-.91-37.88l-.13-2.21c-.15-2.58-2.12-4.68-4.69-5-7.25-.9-14.67-1.61-22.06-2.09l-.48-.03-.26.4c-5.44,8.18-10.71,16.57-15.65,24.95-7.24,12.26-7.3,14.43-6.75,17.82.4,2.46,1.49,4.86,3.26,7.13l.6.77,1.97-2.16c.86-.94.91-2.34.12-3.33l-1.36-1.72c-.72-.91-1.05-2.05-.91-3.21.13-1.16.71-2.19,1.63-2.91.77-.61,1.72-.94,2.7-.94,1.34,0,2.59.6,3.42,1.65l1.36,1.72c3.45,4.36,3.23,10.51-.52,14.61l-3.82,4.18c-.95,1.21-2.26,1.96-3.73,2.16-.25.03-.5.05-.75.05-1.39,0-2.73-.52-3.77-1.45-4.86-4.38-7.9-9.63-8.79-15.17-1.31-8.13,2.34-14.3,7.85-23.64,3.12-5.28,6.4-10.63,9.77-15.92l.26-.4c.72-1.12,1.44-2.25,2.16-3.36l.13-.21c1.01-1.57,2.06-3.18,3.14-4.79l.95-1.43s.07-.09.1-.14c.35-.51.68-.99,1.01-1.47.45-.66.9-1.31,1.36-1.96l.15-.22.4.02c.61.03,1.23.06,1.84.1,8.59.49,17.26,1.28,25.76,2.34,6.74.84,11.92,6.37,12.31,13.14l.13,2.21c.74,12.64,1.11,18.98.93,38.47-.13,14.1-.55,28.37-1.24,42.44-.22,4.45-2.57,8.58-6.29,11.04l-53.44,35.34-53.44-35.34c-3.72-2.46-6.07-6.59-6.29-11.04-.69-14.05-1.11-28.32-1.24-42.44-.18-19.48.19-25.82.92-38.45l.13-2.23c.39-6.77,5.57-12.3,12.31-13.14l1.07-.13c3.12-.39,5.58-.7,12.22-1.29.44-.03,1.01-.08,1.68-.14,2.44-.27,4.92-.52,7.38-.75.69-.07,1.51-.14,2.44-.22l2.68-.23.06.45Z"/>
          </g>
          <g>
            <path class="cls-3" d="M49.62,82.67c.45,0,.9.04,1.34.12,2.02.36,3.78,1.48,4.96,3.16,1.18,1.68,1.63,3.72,1.27,5.74-.65,3.68-3.83,6.35-7.56,6.35-.45,0-.9-.04-1.34-.12-2.02-.36-3.78-1.48-4.96-3.16-1.18-1.68-1.63-3.72-1.27-5.74.65-3.68,3.83-6.35,7.55-6.35Z"/>
            <path class="cls-3" d="M16.14,7.77c.18,1.31.32,2.31.42,3,.03.15.05.25.06.36l.36,2.61.15,1.04c.09.59.2,1.37.43,2.93.14.97.33,2.36.57,4.05,5.12,34.94,9.31,51.85,10.47,56.2,1.19,4.45,2.89,9.79,6.52,15.62,2.42,3.89,5.37,7.48,8.75,10.65.85.8,1.34,1.87,1.38,3.04.04,1.16-.38,2.27-1.17,3.12-.82.88-1.98,1.38-3.18,1.38-1.11,0-2.17-.42-2.98-1.18-3.94-3.69-7.38-7.87-10.2-12.41-4.23-6.8-6.18-12.9-7.54-17.98-2.67-10-7.09-31.7-11.46-62.63l-.11-.78-.78.08c-.58.06-1.15.11-1.73.16-9.18.78-11.76,1.1-15.33,1.55l-1.07.13c-2.57.32-4.54,2.42-4.69,5l-.13,2.21c-.72,12.44-1.09,18.69-.91,37.88.13,13.99.55,28.15,1.23,42.09.08,1.7.98,3.27,2.39,4.2l48.64,32.16,48.64-32.16c1.41-.94,2.31-2.51,2.39-4.2.69-13.93,1.1-28.09,1.24-42.09.18-19.21-.19-25.45-.91-37.88l-.13-2.21c-.15-2.58-2.12-4.68-4.69-5-7.25-.9-14.67-1.61-22.06-2.09l-.48-.03-.26.4c-5.44,8.18-10.71,16.57-15.65,24.95-7.24,12.26-7.3,14.43-6.75,17.82.4,2.46,1.49,4.86,3.26,7.13l.6.77,1.97-2.16c.86-.94.91-2.34.12-3.33l-1.36-1.72c-.72-.91-1.05-2.05-.91-3.21.13-1.16.71-2.19,1.63-2.91.77-.61,1.72-.94,2.7-.94,1.34,0,2.59.6,3.42,1.65l1.36,1.72c3.45,4.36,3.23,10.51-.52,14.61l-3.82,4.18c-.95,1.21-2.26,1.96-3.73,2.16-.25.03-.5.05-.75.05-1.39,0-2.73-.52-3.77-1.45-4.86-4.38-7.9-9.63-8.79-15.17-1.31-8.13,2.34-14.3,7.85-23.64,3.12-5.28,6.4-10.63,9.77-15.92l.26-.4c.72-1.12,1.44-2.25,2.16-3.36l.13-.21c1.01-1.57,2.06-3.18,3.14-4.79l.95-1.43s.07-.09.1-.14c.35-.51.68-.99,1.01-1.47.45-.66.9-1.31,1.36-1.96l.15-.22.4.02c.61.03,1.23.06,1.84.1,8.59.49,17.26,1.28,25.76,2.34,6.74.84,11.92,6.37,12.31,13.14l.13,2.21c.74,12.64,1.11,18.98.93,38.47-.13,14.1-.55,28.37-1.24,42.44-.22,4.45-2.57,8.58-6.29,11.04l-53.44,35.34-53.44-35.34c-3.72-2.46-6.07-6.59-6.29-11.04-.69-14.05-1.11-28.32-1.24-42.44-.18-19.48.19-25.82.92-38.45l.13-2.23c.39-6.77,5.57-12.3,12.31-13.14l1.07-.13c3.12-.39,5.58-.7,12.22-1.29.44-.03,1.01-.08,1.68-.14,2.44-.27,4.92-.52,7.38-.75.69-.07,1.51-.14,2.44-.22l2.68-.23.06.45Z"/>
          </g>
        </g>
        <path class="cls-3" d="M-16.14,277.23c-.18-1.31-.32-2.31-.42-3-.03-.15-.05-.25-.06-.36l-.36-2.61-.15-1.04c-.09-.59-.2-1.37-.43-2.93-.14-.97-.33-2.36-.57-4.05-5.12-34.94-9.31-51.85-10.47-56.2-1.19-4.45-2.89-9.79-6.52-15.62-2.42-3.89-5.37-7.48-8.75-10.65-.85-.8-1.34-1.87-1.38-3.04-.04-1.16.38-2.27,1.17-3.12.82-.88,1.98-1.38,3.18-1.38,1.11,0,2.17.42,2.98,1.18,3.94,3.69,7.38,7.87,10.2,12.41,4.23,6.8,6.18,12.9,7.54,17.98,2.67,10,7.09,31.7,11.46,62.63l.11.78.78-.08c.58-.06,1.15-.11,1.73-.16,9.18-.78,11.76-1.1,15.33-1.55l1.07-.13c2.57-.32,4.54-2.42,4.69-5l.13-2.21c.72-12.44,1.09-18.69.91-37.88-.13-13.99-.55-28.15-1.23-42.09-.08-1.7-.98-3.27-2.39-4.2l-48.64-32.16-48.64,32.16c-1.41.94-2.31,2.51-2.39,4.2-.69,13.93-1.1,28.09-1.24,42.09-.18,19.21.19,25.45.91,37.88l.13,2.21c.15,2.58,2.12,4.68,4.69,5,7.25.9,14.67,1.61,22.06,2.09l.48.03.26-.4c5.44-8.18,10.71-16.57,15.65-24.95,7.24-12.26,7.3-14.43,6.75-17.82-.4-2.46-1.49-4.86-3.26-7.13l-.6-.77-1.97,2.16c-.86.94-.91,2.34-.12,3.33l1.36,1.72c.72.91,1.05,2.05.91,3.21-.13,1.16-.71,2.19-1.63,2.91-.77.61-1.72.94-2.7.94-1.34,0-2.59-.6-3.42-1.65l-1.36-1.72c-3.45-4.36-3.23-10.51.52-14.61l3.82-4.18c.95-1.21,2.26-1.96,3.73-2.16.25-.03.5-.05.75-.05,1.39,0,2.73.52,3.77,1.45,4.86,4.38,7.9,9.63,8.79,15.17,1.31,8.13-2.34,14.3-7.85,23.64-3.12,5.28-6.4,10.63-9.77,15.92l-.26.4c-.72,1.12-1.44,2.25-2.16,3.36l-.13.21c-1.01,1.57-2.06,3.18-3.14,4.79l-.95,1.43s-.07.09-.1.14c-.35.51-.68.99-1.01,1.47-.45.66-.9,1.31-1.36,1.96l-.15.22-.4-.02c-.61-.03-1.23-.06-1.84-.1-8.59-.49-17.26-1.28-25.76-2.34-6.74-.84-11.92-6.37-12.31-13.14l-.13-2.21c-.74-12.64-1.11-18.98-.93-38.47.13-14.1.55-28.37,1.24-42.44.22-4.45,2.57-8.58,6.29-11.04l53.44-35.34,53.44,35.34c3.72,2.46,6.07,6.59,6.29,11.04.69,14.05,1.11,28.32,1.24,42.44.18,19.48-.19,25.82-.92,38.45l-.13,2.23c-.39,6.77-5.57,12.3-12.31,13.14l-1.07.13c-3.12.39-5.58.7-12.22,1.29-.44.03-1.01.08-1.68.14-2.44.27-4.92.52-7.38.75-.69.07-1.51.14-2.44.22l-2.68.23-.06-.45Z"/>
      </g>
    </pattern>
  </defs>
  <rect class="cls-2" width="595.28" height="841.89"/>
</svg>