<svg width="95" height="135" viewBox="0 0 95 135" fill="none" xmlns="http://www.w3.org/2000/svg">
<g clip-path="url(#clip0_51_497)">
<path d="M83.09 50.7V35.92C83.09 16.11 66.98 0 47.18 0C27.38 0 11.27 16.11 11.27 35.92V50.7C5.01 51.07 0 56.31 0 62.67V122.76C0 129.36 5.4 134.76 12 134.76H82.36C88.96 134.76 94.36 129.36 94.36 122.76V62.67C94.36 56.31 89.35 51.07 83.09 50.7ZM41.04 111.13C39.87 111.13 38.98 110.05 39.21 108.9L42.14 93.92C42.21 93.59 42.05 93.26 41.76 93.08C38.59 91.11 36.56 87.45 36.94 83.37C37.38 78.57 41.24 74.64 46.03 74.12C52.22 73.45 57.47 78.28 57.47 84.34C57.47 88.06 55.49 91.32 52.53 93.13C52.24 93.3 52.08 93.63 52.15 93.97L55.07 108.9C55.3 110.05 54.41 111.13 53.24 111.13M68.09 50.67H26.27V35.92C26.27 24.39 35.65 15 47.18 15C58.71 15 68.09 24.39 68.09 35.92V50.67Z" fill="black"/>
</g>
<defs>
<clipPath id="clip0_51_497">
<rect width="94.36" height="134.76" fill="white"/>
</clipPath>
</defs>
</svg>
